<?xml version="1.0" encoding="UTF-8" standalone="no"?>
<!DOCTYPE svg PUBLIC "-//W3C//DTD SVG 1.1//EN" "http://www.w3.org/Graphics/SVG/1.1/DTD/svg11.dtd">
<svg width="100%" height="100%" viewBox="0 0 256 256" version="1.1" xmlns="http://www.w3.org/2000/svg" xmlns:xlink="http://www.w3.org/1999/xlink" xml:space="preserve" xmlns:serif="http://www.serif.com/" style="fill-rule:evenodd;clip-rule:evenodd;stroke-linejoin:round;stroke-miterlimit:2;">
    <g transform="matrix(0.811051,0,0,0.811051,-5582.63,-5257.84)">
        <g transform="matrix(0.422979,0,0,0.422979,7114.84,6622.69)">
            <path d="M0,-38.96C-4.615,-83.731 -25.019,-124.016 -55.6,-154.253C-90.521,-188.817 -138.721,-210.24 -191.798,-210.243L-191.844,-210.243C-244.917,-210.24 -293.117,-188.817 -328.056,-154.258C-362.977,-119.7 -384.669,-72.011 -384.669,-19.501L-384.669,-19.457C-384.669,33.054 -362.977,80.721 -328.056,115.289C-293.117,149.873 -244.917,171.287 -191.833,171.287L-191.806,171.287C-144.021,171.287 -100.179,153.953 -66.436,125.314C-56.343,124.594 -44.209,109.061 -1.964,106.953L-1.982,106.98L-2.037,107.051C-7.819,115.506 -14.144,123.553 -20.972,131.115C-27.718,138.6 -35.063,145.723 -42.976,152.43C-83.072,186.478 -135.106,207.08 -191.806,207.08L-191.833,207.08C-254.906,207.08 -312.159,181.637 -353.636,140.605C-395.145,99.561 -420.864,42.922 -420.871,-19.457L-420.871,-19.501C-420.864,-81.9 -395.145,-138.539 -353.621,-179.566C-312.151,-220.594 -254.906,-246.033 -191.844,-246.04L-191.798,-246.04C-128.738,-246.037 -71.473,-220.594 -30.017,-179.566C1.753,-148.151 23.251,-107.65 31.741,-62.296C34.797,-42.113 25.417,-5.801 -14.703,19.499C-37.652,32.228 -50.517,36.662 -66.758,36.662C-79.614,36.662 -86.892,33.896 -100.881,23.928C-114.863,35.556 -122.717,42.193 -136.699,54.373C-166.363,80.389 -183.704,91.01 -198.239,91.01C-208.325,91.01 -219.516,83.266 -225.12,72.09C-228.478,66.01 -229.599,59.359 -229.599,48.287C-229.599,42.748 -228.478,28.912 -227.352,17.284L-268.2,57.146C-288.35,75.414 -300.666,82.625 -313.542,82.625C-326.966,82.625 -345.438,72.09 -355.523,58.246C-363.914,47.736 -366.707,38.326 -368.96,18.946L-368.96,11.753C-368.96,8.428 -368.387,2.337 -367.833,-4.857C-363.914,-28.114 -356.077,-44.171 -341.526,-61.335C-301.231,-107.838 -273.246,-129.986 -254.771,-129.986C-247.506,-129.986 -235.757,-127.218 -229.031,-124.452C-223.985,-121.679 -221.755,-118.354 -221.755,-113.377C-221.755,-93.441 -247.506,-65.21 -316.894,-8.739L-319.141,0.117C-323.052,12.306 -323.605,16.174 -323.605,21.159C-323.605,27.254 -320.268,32.228 -315.767,32.228C-313.542,32.228 -310.182,30.571 -306.271,27.806L-291.147,17.84C-267.088,2.894 -208.877,-51.918 -182.026,-84.585C-163.563,-107.286 -155.165,-115.037 -149.007,-115.037C-146.775,-115.037 -139.502,-112.823 -134.451,-111.164C-127.194,-108.388 -123.828,-105.623 -123.828,-101.198C-123.828,-98.982 -127.194,-93.441 -137.271,-76.281C-165.237,-30.884 -186.49,13.411 -186.49,26.14C-186.49,32.791 -182.026,38.326 -176.44,38.326C-168.049,38.326 -157.98,30.015 -123.275,-3.754C-124.383,-8.739 -124.941,-13.163 -124.941,-15.933C-124.941,-43.619 -72.909,-108.941 -51.08,-108.941C-40.997,-108.941 -33.153,-97.87 -33.153,-82.37C-33.153,-60.225 -37.652,-50.815 -70.671,-4.857C-62.833,3.442 -55.343,8.647 -46.043,6.771C-21.633,1.83 -0.218,-24.043 0,-38.96" style="fill:rgb(29,78,161);fill-rule:nonzero;"/>
        </g>
        <g transform="matrix(0.851457,0,0,0.851457,5363.75,6328.08)">
            <path d="M2054.47,506.127L2066.05,506.127C2067.89,506.127 2068.37,506.127 2069.09,505.973C2070.62,505.725 2071.59,504.759 2071.59,503.556C2071.59,502.676 2071.59,502.588 2068.61,500.182L2061.79,494.559C2056.33,490.066 2054.47,486.856 2054.47,482.109C2054.47,473.195 2061.46,467.653 2072.79,467.653L2088.3,467.653L2088.3,482.595L2078.49,482.595C2074.72,482.595 2073.59,483.074 2073.59,484.441C2073.59,485.325 2074.23,486.043 2076.32,487.65L2082.84,492.796C2088.53,497.368 2090.71,501.071 2090.71,506.206C2090.71,515.284 2083.23,521.073 2071.5,521.073L2054.47,521.073L2054.47,506.127ZM1879.62,467.653L1896.15,467.653L1896.15,502.273C1896.15,509.022 1894.88,513.037 1891.58,516.651C1888.37,520.106 1883.23,522.126 1877.61,522.126C1871.9,522.126 1867.87,520.582 1864.41,517.051C1861.61,520.427 1857.51,522.126 1851.96,522.126C1845.7,522.126 1840.64,520.023 1837.11,516.011C1834.22,512.794 1833.01,508.941 1833.01,503.315L1833.01,467.653L1849.55,467.653L1849.55,501.63C1849.55,505.081 1850.6,506.613 1852.93,506.613C1854.13,506.613 1855.26,505.889 1855.91,504.759C1856.3,504.123 1856.38,503.396 1856.38,501.63L1856.38,467.653L1872.94,467.653L1872.94,501.63C1872.94,503.962 1873.03,504.525 1873.59,505.249C1874.15,506.127 1875.11,506.613 1876.24,506.613C1878.65,506.613 1879.62,505.081 1879.62,501.39L1879.62,467.653ZM1938.25,507.017L1938.25,521.073L1929.98,521.073C1920.1,521.073 1914,518.421 1908.61,511.911C1904.44,506.764 1902.27,500.903 1902.27,494.559C1902.27,486.933 1905.4,479.621 1910.94,474.401C1915.68,469.899 1921.46,467.653 1928.54,467.653L1938.25,467.653L1938.25,481.866L1933.43,481.866C1926.53,481.866 1922.1,484.119 1920.99,488.221L1938.25,488.221L1938.25,500.745L1920.99,500.745C1922.03,504.844 1925.88,507.017 1932.15,507.017L1938.25,507.017ZM1962.11,521.073L1945.57,521.073L1945.57,467.653L1962.51,467.653C1971.34,467.653 1977.77,469.899 1982.59,474.643C1987.81,479.783 1990.78,487.007 1990.78,494.72C1990.78,509.257 1980.18,521.073 1967.16,521.073L1964.77,521.073L1964.77,506.047L1965.73,506.047C1967.81,506.047 1970.61,504.204 1971.91,501.949C1973.02,499.944 1973.67,497.368 1973.67,494.559C1973.67,487.254 1969.65,482.595 1963.31,482.595L1962.11,482.595L1962.11,521.073ZM2022.51,466.608C2037.53,466.608 2050.06,479.219 2050.06,494.406C2050.06,509.665 2037.53,522.126 2022.27,522.126C2006.76,522.126 1994.24,509.746 1994.24,494.486C1994.24,478.898 2006.68,466.608 2022.51,466.608ZM2022.03,482.919C2016.16,482.919 2011.34,487.975 2011.34,494.238C2011.34,500.585 2016.24,505.806 2022.27,505.806C2028.13,505.806 2032.95,500.585 2032.95,494.319C2032.95,487.9 2028.13,482.919 2022.03,482.919Z" style="fill:rgb(29,78,161);"/>
        </g>
        <g transform="matrix(0.422979,0,0,0.422979,7135.63,6539.2)">
            <path d="M0,-45.028L-11.804,-45.028L-11.804,-27.663L-0.345,-27.663C2.729,-27.663 5.315,-27.929 7.411,-28.46C9.51,-28.992 11.109,-29.896 12.217,-31.174C13.322,-32.452 13.875,-34.212 13.875,-36.453C13.875,-38.205 13.43,-39.75 12.539,-41.086C11.649,-42.421 10.413,-43.42 8.835,-44.08C7.34,-44.711 4.396,-45.028 0,-45.028M-7.323,-18.485L-11.804,-18.485L-11.804,1.81C-11.804,4.482 -12.394,6.45 -13.572,7.713C-14.752,8.977 -16.288,9.609 -18.184,9.609C-20.225,9.609 -21.802,8.948 -22.924,7.627C-24.043,6.306 -24.603,4.368 -24.603,1.81L-24.603,-46.795C-24.603,-49.553 -23.985,-51.548 -22.749,-52.784C-21.516,-54.019 -19.52,-54.637 -16.762,-54.637L4.052,-54.637C6.924,-54.637 9.38,-54.515 11.419,-54.271C13.46,-54.026 15.296,-53.531 16.935,-52.784C18.918,-51.95 20.669,-50.759 22.192,-49.207C23.713,-47.657 24.87,-45.854 25.659,-43.799C26.451,-41.746 26.845,-39.569 26.845,-37.272C26.845,-32.56 25.517,-28.798 22.859,-25.983C20.201,-23.167 16.172,-21.17 10.773,-19.993C13.044,-18.786 15.211,-17.006 17.279,-14.65C19.348,-12.295 21.193,-9.787 22.817,-7.131C24.44,-4.473 25.704,-2.074 26.607,0.064C27.513,2.206 27.965,3.678 27.965,4.482C27.965,5.315 27.7,6.14 27.17,6.959C26.639,7.777 25.911,8.425 24.993,8.898C24.073,9.372 23.012,9.609 21.805,9.609C20.366,9.609 19.16,9.271 18.186,8.597C17.207,7.922 16.368,7.067 15.663,6.033C14.961,4.998 14.005,3.476 12.799,1.465L7.67,-7.066C5.833,-10.197 4.186,-12.581 2.737,-14.218C1.286,-15.856 -0.188,-16.977 -1.681,-17.58C-3.172,-18.183 -5.055,-18.485 -7.323,-18.485" style="fill:rgb(29,78,161);fill-rule:nonzero;"/>
        </g>
        <g transform="matrix(0.422979,0,0,0.422979,7135.58,6511.86)">
            <path d="M0,87.937C-24.28,87.937 -43.968,68.252 -43.968,43.967C-43.968,19.684 -24.28,-0.001 0,-0.001C24.28,-0.001 43.967,19.684 43.967,43.967C43.967,68.252 24.28,87.937 0,87.937M0,-7.995C-28.699,-7.995 -51.965,15.27 -51.965,43.969C-51.965,72.668 -28.699,95.932 0,95.932C28.697,95.932 51.965,72.668 51.965,43.969C51.965,15.27 28.697,-7.995 0,-7.995" style="fill:rgb(29,78,161);fill-rule:nonzero;"/>
        </g>
    </g>
</svg>
